<?xml version="1.0" encoding="utf-8"?>
<!-- Generator: Adobe Illustrator 28.3.0, SVG Export Plug-In . SVG Version: 6.00 Build 0)  -->
<svg version="1.1" id="Layer_1" xmlns:serif="http://www.serif.com/"
	 xmlns="http://www.w3.org/2000/svg" xmlns:xlink="http://www.w3.org/1999/xlink" x="0px" y="0px" viewBox="0 0 595.3 841.9"
	 style="enable-background:new 0 0 595.3 841.9;" xml:space="preserve">
<style type="text/css">
	.st0{fill:none;}
	.st1{font-family:'Impact';}
	.st2{font-size:60px;}
	.st3{fill:url(#SVGID_1_);stroke:#000000;stroke-miterlimit:10;}
	.st4{fill:#12F7FF;stroke:#000000;stroke-miterlimit:10;}
	.st5{stroke:#000000;stroke-miterlimit:10;}
	.st6{fill:url(#SVGID_00000143598967112277283740000000963019392985581703_);stroke:#000000;stroke-miterlimit:10;}
	.st7{fill:url(#SVGID_00000102545711468242495650000016268972919097072564_);stroke:#000000;stroke-miterlimit:10;}
	.st8{fill:url(#SVGID_00000054967955614733496700000013737684183813797546_);stroke:#000000;stroke-miterlimit:10;}
	.st9{fill:url(#SVGID_00000044167802943755573880000000699979175604061863_);stroke:#000000;stroke-miterlimit:10;}
</style>
<g id="アートボード1" transform="matrix(1.00708,0,0,1.01162,-1098.31,-862.665)">
	<rect x="1025.8" y="1151.9" class="st0" width="586.9" height="219.5"/>
	<g transform="matrix(1.07228,0,0,0.71465,-80.7441,248.001)">
		<text transform="matrix(0.926 0 0 1.3832 1145.4878 1357.2166)"><tspan x="0" y="0" class="st1 st2">SJCOE </tspan><tspan x="0" y="72" class="st1 st2">FabLab</tspan></text>
	</g>
</g>
<linearGradient id="SVGID_1_" gradientUnits="userSpaceOnUse" x1="256.232" y1="376.1497" x2="532.8154" y2="461.5224">
	<stop  offset="0" style="stop-color:#949494"/>
	<stop  offset="1" style="stop-color:#6B6B6B"/>
</linearGradient>
<path class="st3" d="M255.4,333.7c-6.8,2.1-11.4,8.8-13,15.8c-1.6,7-0.7,14.2,0.2,21.3c1.3,10.2,2.6,20.4,5.5,30.3
	c6.4,21.6,20.4,41.4,20,63.9c-0.2,10.5-3,22.5,4.1,30.2c3.1,3.3,7.4,5,11.7,6.5c42.8,15.4,87.3,25.9,132.5,31.2
	c20.7,2.4,42.6,3.6,61.3-5.6c10.6-5.2,19.7-13.6,25.6-23.9c5.3-9.2,8.1-19.7,10.5-30c7.7-33.5,11.7-67.9,11.9-102.3
	c0-4.3,0-8.8-1.7-12.8c-1.7-3.9-4.8-7-8-9.7c-21.1-18.3-49-26.5-76.6-31.1C377.6,307.2,314,315.8,255.4,333.7z"/>
<path class="st4" d="M369.4,465.3c-31.9-6.5-66-14.5-87.7-38.7c-21.4-23.8-26-59-19.4-90.3c6.3-29.8,23-58.5,49.4-73.7
	c21.5-12.3,47.2-14.7,72-14.9c12.5-0.1,25.2,0.4,37.2,3.7c21.8,6.1,40.3,21.5,52.7,40.5c12.4,18.9,19.1,41.1,22.4,63.5
	c3.6,24.8,2.8,51.3-9,73.5c-10.8,20.4-30.6,35.5-52.8,41.9S389.6,469.4,369.4,465.3z"/>
<circle class="st5" cx="339.1" cy="350.3" r="12.7"/>
<ellipse class="st5" cx="427.6" cy="355.7" rx="11.8" ry="13.3"/>
<path class="st5" d="M315.1,333.4c0.3-3,2.7-5.3,4.9-7.3c3.6-3.2,7.6-6.3,12.4-7.1c4.7-0.9,10.4,1.3,12.2,5.6
	c-7.5-2.9-16.8,0-21.5,6.5c-0.8,1.1-1.4,2.2-2.4,3.1c-0.9,0.9-2.3,1.5-3.6,1.3S314.8,333.7,315.1,333.4z"/>
<path class="st5" d="M407,322.7c2-3.9,5.4-7.2,9.6-8.7s9-1.2,12.7,1.3c2.5,1.7,4.2,4.2,5.8,6.7c1.8,3,3.4,6.2,3.7,9.6
	c-3.6-2.9-7.3-5.7-11.5-7.4c-4.3-1.7-9.1-2.3-13.4-0.7c-1.7,0.6-3.4,1.6-5.3,1.4C406.7,324.8,405,322.5,407,322.7z"/>
<linearGradient id="SVGID_00000031915158355862296240000018288360664114043021_" gradientUnits="userSpaceOnUse" x1="352.4766" y1="356.1741" x2="410.4487" y2="535.452">
	<stop  offset="0" style="stop-color:#1A1313"/>
	<stop  offset="1" style="stop-color:#383838"/>
</linearGradient>
<path style="fill:url(#SVGID_00000031915158355862296240000018288360664114043021_);stroke:#000000;stroke-miterlimit:10;" d="
	M288.4,445.1c-0.6-4.5,1.2-9.2,4.7-12.2c38.4,16.5,79.4,28.1,121.2,28.2c17.3,0,35.2-2.1,49.9-11.1c3.2-2,7.8-4.1,10.3-1.4
	c0.6,0.6,1,1.5,1.3,2.3c1.3,2.9,2.6,6.1,1.8,9.2c-0.9,3.6-4.2,5.9-7.4,7.8c-26.2,15.5-57.7,21.7-87.8,17.2
	c-13.9-2-27.4-6.3-40.8-10.5c-14-4.4-28.2-8.8-40.8-16.4C295,454.8,289.1,450.3,288.4,445.1z"/>
<linearGradient id="SVGID_00000160906978305404359380000013013950291255278508_" gradientUnits="userSpaceOnUse" x1="335.2181" y1="319.8515" x2="387.6011" y2="481.845">
	<stop  offset="0" style="stop-color:#1A1313"/>
	<stop  offset="1" style="stop-color:#383838"/>
</linearGradient>
<path style="fill:url(#SVGID_00000160906978305404359380000013013950291255278508_);stroke:#000000;stroke-miterlimit:10;" d="
	M313.7,384c7.6-0.8,15.2-0.3,22.8,0.1c24.1,1.5,48.2,2.9,72.3,4.4c4,0.2,8.5,0.8,10.7,4c2.3,3.3,1.2,7.8-0.1,11.6
	c-4.7,13.4-11.9,26.9-24.3,33.9c-11.9,6.7-26.4,6.4-39.9,4.6c-6.7-0.9-13.4-2.1-19.6-4.8c-13-5.7-22.1-17.5-29.9-29.4
	c-4.8-7.3-9.4-15.3-9.5-24C297.3,384.1,298.4,385.6,313.7,384z"/>
<linearGradient id="SVGID_00000140732405106270480730000008914625731930006975_" gradientUnits="userSpaceOnUse" x1="201.3147" y1="348.8886" x2="277.7748" y2="585.34">
	<stop  offset="0" style="stop-color:#1A1313"/>
	<stop  offset="1" style="stop-color:#383838"/>
</linearGradient>
<path style="fill:url(#SVGID_00000140732405106270480730000008914625731930006975_);stroke:#000000;stroke-miterlimit:10;" d="
	M251,408.8c-11,2.8-17.6,13.7-22.3,24c-9.2,20.6-15.2,42.6-17.6,65c-0.1,0.9-0.2,1.9,0.2,2.7c0.4,0.8,1.3,1.3,2,1.8
	c8.6,5.1,16.9,10.7,24.7,16.9c4.2,3.2,8.3,6.6,13.1,8.9c4.8,2.3,10.4,3.4,15.4,1.7c9.8-3.2,13.7-14.9,15.3-25.1
	c0.2-1.3,0.4-2.6,0-3.9c-0.4-1.3-1.5-2.3-2.4-3.4c-5.7-7-3.5-17.2-3.3-26.2C276.8,448,263.1,427.3,251,408.8z"/>
<linearGradient id="SVGID_00000138534678752841376490000007494090871231872929_" gradientUnits="userSpaceOnUse" x1="480.7393" y1="390.4406" x2="542.0504" y2="580.0438">
	<stop  offset="0" style="stop-color:#1A1313"/>
	<stop  offset="1" style="stop-color:#383838"/>
</linearGradient>
<path style="fill:url(#SVGID_00000138534678752841376490000007494090871231872929_);stroke:#000000;stroke-miterlimit:10;" d="
	M520.3,438.5c-7.8,2.5-13.1,9.6-17.3,16.7c-12.3,21.3-18.6,46.1-17.9,70.7c0.9-2.1,4.1-0.9,5.7,0.7c3.5,3.4,6.4,7.6,10.5,10.3
	c7,4.7,16.5,4.5,24.2,1c7.7-3.5,13.7-9.8,18.7-16.6c2.6-3.6,5.1-7.4,6.4-11.6c3.2-9.8,0.5-20.5-2.2-30.5c-2.3-8.6-4.7-17.3-9.2-24.9
	C534.7,446.5,527.7,439.8,520.3,438.5z"/>
</svg>
