<?xml version="1.0" encoding="utf-8"?>
<!-- Generator: Adobe Illustrator 28.3.0, SVG Export Plug-In . SVG Version: 6.00 Build 0)  -->
<svg version="1.1" id="Layer_1" xmlns:serif="http://www.serif.com/"
	 xmlns="http://www.w3.org/2000/svg" xmlns:xlink="http://www.w3.org/1999/xlink" x="0px" y="0px" viewBox="0 0 595.3 841.9"
	 style="enable-background:new 0 0 595.3 841.9;" xml:space="preserve">
<style type="text/css">
	.st0{fill:none;}
	.st1{font-family:'Impact';}
	.st2{font-size:60px;}
	.st3{fill:url(#SVGID_1_);stroke:#000000;stroke-miterlimit:10;}
	.st4{fill:#12F7FF;stroke:#000000;stroke-miterlimit:10;}
	.st5{stroke:#000000;stroke-miterlimit:10;}
	.st6{fill:url(#SVGID_00000077301918947702422510000007291395516285084320_);stroke:#000000;stroke-miterlimit:10;}
	.st7{fill:url(#SVGID_00000101825449559151331720000009074800929628293031_);stroke:#000000;stroke-miterlimit:10;}
	.st8{fill:url(#SVGID_00000020365579379465006550000003845835310939107208_);stroke:#000000;stroke-miterlimit:10;}
	.st9{fill:url(#SVGID_00000044856867426169857280000006673898204744767111_);stroke:#000000;stroke-miterlimit:10;}
</style>
<g id="アートボード1" transform="matrix(1.00708,0,0,1.01162,-1098.31,-862.665)">
	<rect x="1047.9" y="1184.4" class="st0" width="586.9" height="219.5"/>
	<g transform="matrix(1.07228,0,0,0.71465,-80.7441,248.001)">
		<text transform="matrix(0.926 0 0 1.3832 1166.1571 1402.6359)"><tspan x="0" y="0" class="st1 st2">SJCOE </tspan><tspan x="0" y="72" class="st1 st2">FabLab</tspan></text>
	</g>
</g>
<linearGradient id="SVGID_1_" gradientUnits="userSpaceOnUse" x1="354.4808" y1="390.5177" x2="558.5867" y2="453.5188">
	<stop  offset="0" style="stop-color:#949494"/>
	<stop  offset="1" style="stop-color:#6B6B6B"/>
</linearGradient>
<path class="st3" d="M353.9,359.2c-5,1.5-8.4,6.5-9.6,11.7s-0.5,10.5,0.2,15.7c1,7.5,1.9,15.1,4.1,22.4
	c4.7,15.9,15.1,30.6,14.8,47.2c-0.1,7.7-2.2,16.6,3,22.3c2.3,2.4,5.5,3.7,8.6,4.8c31.6,11.4,64.4,19.1,97.8,23
	c15.3,1.8,31.5,2.6,45.3-4.1c7.8-3.8,14.5-10.1,18.9-17.6c3.9-6.8,6-14.5,7.8-22.2c5.7-24.7,8.6-50.1,8.8-75.5c0-3.2,0-6.5-1.3-9.5
	c-1.2-2.9-3.5-5.1-5.9-7.2c-15.6-13.5-36.2-19.6-56.5-23C444.1,339.6,397.1,346,353.9,359.2z"/>
<path class="st4" d="M438,456.3c-23.5-4.8-48.7-10.7-64.7-28.5c-15.8-17.5-19.2-43.5-14.3-66.6c4.6-22,16.9-43.2,36.4-54.4
	c15.9-9.1,34.9-10.9,53.2-11c9.2,0,18.6,0.3,27.4,2.8c16.1,4.5,29.7,15.9,38.9,29.9c9.2,14,14.1,30.4,16.5,46.9
	c2.6,18.3,2,37.9-6.7,54.2c-8,15-22.6,26.2-38.9,30.9S452.9,459.3,438,456.3z"/>
<circle class="st5" cx="415.7" cy="371.5" r="9.4"/>
<ellipse class="st5" cx="481" cy="375.4" rx="8.7" ry="9.8"/>
<path class="st5" d="M397.9,359c0.2-2.2,2-3.9,3.7-5.4c2.7-2.3,5.6-4.6,9.1-5.3c3.5-0.6,7.6,1,9,4.1c-5.6-2.1-12.4,0-15.9,4.8
	c-0.6,0.8-1.1,1.6-1.7,2.3c-0.7,0.7-1.7,1.1-2.6,0.9C398.5,360.3,397.7,359.2,397.9,359z"/>
<path class="st5" d="M465.8,351.1c1.5-2.9,4-5.3,7.1-6.5c3.1-1.1,6.7-0.8,9.4,1c1.8,1.2,3.1,3.1,4.3,5c1.3,2.2,2.5,4.5,2.7,7.1
	c-2.6-2.1-5.4-4.2-8.5-5.5c-3.1-1.3-6.7-1.7-9.9-0.5c-1.3,0.5-2.5,1.2-3.9,1.1C465.5,352.6,464.3,351,465.8,351.1z"/>
<linearGradient id="SVGID_00000017514858923166383430000000706646525818941875_" gradientUnits="userSpaceOnUse" x1="425.5049" y1="375.7766" x2="468.2857" y2="508.0755">
	<stop  offset="0" style="stop-color:#1A1313"/>
	<stop  offset="1" style="stop-color:#383838"/>
</linearGradient>
<path style="fill:url(#SVGID_00000017514858923166383430000000706646525818941875_);stroke:#000000;stroke-miterlimit:10;" d="
	M378.2,441.4c-0.4-3.3,0.9-6.8,3.5-9c28.3,12.1,58.6,20.7,89.4,20.8c12.7,0,25.9-1.6,36.8-8.2c2.4-1.5,5.7-3.1,7.6-1
	c0.4,0.5,0.7,1.1,1,1.7c0.9,2.2,1.9,4.5,1.3,6.8c-0.7,2.6-3.1,4.4-5.5,5.8c-19.3,11.4-42.6,16-64.8,12.7
	c-10.3-1.5-20.2-4.6-30.1-7.7c-10.3-3.2-20.8-6.5-30.1-12.1C383.1,448.6,378.7,445.2,378.2,441.4z"/>
<linearGradient id="SVGID_00000091735987784113774900000009247127755684595897_" gradientUnits="userSpaceOnUse" x1="412.7689" y1="348.9722" x2="451.4252" y2="468.5159">
	<stop  offset="0" style="stop-color:#1A1313"/>
	<stop  offset="1" style="stop-color:#383838"/>
</linearGradient>
<path style="fill:url(#SVGID_00000091735987784113774900000009247127755684595897_);stroke:#000000;stroke-miterlimit:10;" d="
	M396.9,396.3c5.6-0.6,11.2-0.2,16.8,0.1c17.8,1.1,35.6,2.1,53.4,3.2c2.9,0.2,6.2,0.6,7.9,3c1.7,2.4,0.9,5.8-0.1,8.6
	c-3.5,9.9-8.8,19.8-17.9,25c-8.8,5-19.5,4.7-29.5,3.4c-4.9-0.6-9.9-1.5-14.5-3.6c-9.6-4.2-16.3-12.9-22.1-21.7
	c-3.5-5.4-7-11.3-7-17.7C384.8,396.4,385.6,397.5,396.9,396.3z"/>
<linearGradient id="SVGID_00000146467167763151797420000006913649731609525684_" gradientUnits="userSpaceOnUse" x1="313.9544" y1="370.4002" x2="370.3784" y2="544.8905">
	<stop  offset="0" style="stop-color:#1A1313"/>
	<stop  offset="1" style="stop-color:#383838"/>
</linearGradient>
<path style="fill:url(#SVGID_00000146467167763151797420000006913649731609525684_);stroke:#000000;stroke-miterlimit:10;" d="
	M350.6,414.6c-8.1,2-13,10.1-16.4,17.7c-6.8,15.2-11.2,31.4-13,47.9c-0.1,0.7-0.1,1.4,0.2,2c0.3,0.6,0.9,1,1.5,1.3
	c6.3,3.8,12.4,7.9,18.3,12.4c3.1,2.4,6.1,4.9,9.7,6.6c3.5,1.7,7.6,2.5,11.4,1.3c7.3-2.4,10.1-11,11.3-18.6c0.2-0.9,0.3-1.9,0-2.8
	c-0.3-1-1.1-1.7-1.8-2.5c-4.2-5.2-2.6-12.7-2.4-19.3C369.7,443.6,359.6,428.2,350.6,414.6z"/>
<linearGradient id="SVGID_00000028309795032462964550000012490171272854999973_" gradientUnits="userSpaceOnUse" x1="520.1569" y1="401.0636" x2="565.4017" y2="540.9822">
	<stop  offset="0" style="stop-color:#1A1313"/>
	<stop  offset="1" style="stop-color:#383838"/>
</linearGradient>
<path style="fill:url(#SVGID_00000028309795032462964550000012490171272854999973_);stroke:#000000;stroke-miterlimit:10;" d="
	M549.3,436.5c-5.8,1.8-9.7,7.1-12.7,12.3c-9.1,15.7-13.7,34-13.2,52.1c0.7-1.5,3-0.7,4.2,0.5c2.6,2.5,4.7,5.6,7.7,7.6
	c5.2,3.5,12.2,3.3,17.8,0.7c5.7-2.6,10.1-7.2,13.8-12.3c1.9-2.6,3.7-5.4,4.8-8.6c2.4-7.3,0.4-15.1-1.6-22.5
	c-1.7-6.3-3.5-12.7-6.8-18.4C560,442.4,554.8,437.5,549.3,436.5z"/>
</svg>
