<?xml version="1.0" encoding="utf-8"?>
<!-- Generator: Adobe Illustrator 28.3.0, SVG Export Plug-In . SVG Version: 6.00 Build 0)  -->
<svg version="1.1" id="Layer_1" xmlns:serif="http://www.serif.com/"
	 xmlns="http://www.w3.org/2000/svg" xmlns:xlink="http://www.w3.org/1999/xlink" x="0px" y="0px" viewBox="0 0 595.3 841.9"
	 style="enable-background:new 0 0 595.3 841.9;" xml:space="preserve">
<style type="text/css">
	.st0{fill:url(#SVGID_1_);stroke:#000000;stroke-miterlimit:10;}
	.st1{fill:#12F7FF;stroke:#000000;stroke-miterlimit:10;}
	.st2{stroke:#000000;stroke-miterlimit:10;}
	.st3{fill:url(#SVGID_00000142871596495408955080000015417617829926475195_);stroke:#000000;stroke-miterlimit:10;}
	.st4{fill:url(#SVGID_00000021842394743388365190000003388408179233604481_);stroke:#000000;stroke-miterlimit:10;}
	.st5{fill:url(#SVGID_00000034087806198134545310000006148839534600573107_);stroke:#000000;stroke-miterlimit:10;}
	.st6{fill:url(#SVGID_00000006675288666251935060000013101441547094514076_);stroke:#000000;stroke-miterlimit:10;}
	.st7{fill:none;}
	.st8{font-family:'Impact';}
	.st9{font-size:74.1995px;}
</style>
<linearGradient id="SVGID_1_" gradientUnits="userSpaceOnUse" x1="98.2069" y1="371.1684" x2="516.7472" y2="500.3586">
	<stop  offset="0" style="stop-color:#949494"/>
	<stop  offset="1" style="stop-color:#6B6B6B"/>
</linearGradient>
<path class="st0" d="M96.9,307c-10.3,3.2-17.3,13.3-19.7,23.9c-2.4,10.5-1,21.5,0.3,32.3c2,15.4,4,30.9,8.4,45.9
	c9.7,32.6,30.9,62.7,30.3,96.7c-0.3,15.8-4.6,34.1,6.2,45.6c4.6,5,11.3,7.5,17.7,9.8c64.7,23.4,132.1,39.2,200.4,47.3
	c31.3,3.7,64.5,5.4,92.8-8.5c16.1-7.9,29.7-20.6,38.7-36.1c8.1-13.9,12.3-29.7,15.9-45.5c11.7-50.7,17.7-102.8,18-154.8
	c0-6.6-0.1-13.3-2.6-19.4c-2.5-5.9-7.2-10.6-12-14.7c-31.9-27.6-74.2-40.1-115.9-47.1C281.9,266.8,185.6,279.9,96.9,307z"/>
<path class="st1" d="M269.4,506c-48.2-9.9-99.8-21.9-132.7-58.5c-32.3-35.9-39.3-89.3-29.3-136.6c9.5-45.1,34.7-88.6,74.7-111.5
	c32.5-18.7,71.5-22.3,109-22.5c18.9-0.1,38.1,0.6,56.3,5.7c33,9.2,61,32.6,79.8,61.2s29,62.3,33.8,96.2
	c5.4,37.6,4.2,77.6-13.7,111.2c-16.4,30.8-46.3,53.8-79.8,63.4C333.9,524,300,512.3,269.4,506z"/>
<circle class="st2" cx="223.6" cy="332.1" r="19.2"/>
<ellipse class="st2" cx="357.6" cy="340.2" rx="17.9" ry="20.2"/>
<path class="st2" d="M187.2,306.5c0.5-4.6,4-8.1,7.5-11.1c5.5-4.8,11.5-9.5,18.7-10.8c7.2-1.3,15.7,2,18.5,8.5
	c-11.4-4.3-25.5-0.1-32.6,9.9c-1.2,1.6-2.2,3.4-3.6,4.8c-1.4,1.4-3.5,2.3-5.4,1.9C188.4,309.2,186.9,306.9,187.2,306.5z"/>
<path class="st2" d="M326.4,290.3c3.1-5.9,8.2-10.9,14.5-13.2c6.3-2.3,13.7-1.7,19.2,2c3.7,2.5,6.4,6.3,8.8,10.2
	c2.7,4.5,5.1,9.3,5.6,14.5c-5.4-4.4-11-8.6-17.5-11.2c-6.4-2.6-13.8-3.4-20.3-1c-2.6,1-5.2,2.5-8,2.2
	C325.9,293.4,323.4,290.1,326.4,290.3z"/>
<linearGradient id="SVGID_00000183941792048812673520000005677386539886968977_" gradientUnits="userSpaceOnUse" x1="243.8491" y1="340.9401" x2="331.5755" y2="612.2327">
	<stop  offset="0" style="stop-color:#1A1313"/>
	<stop  offset="1" style="stop-color:#383838"/>
</linearGradient>
<path style="fill:url(#SVGID_00000183941792048812673520000005677386539886968977_);stroke:#000000;stroke-miterlimit:10;" d="
	M146.9,475.5c-0.9-6.8,1.9-14,7.1-18.4c58.1,24.9,120.2,42.5,183.4,42.6c26.1,0,53.2-3.2,75.5-16.8c4.9-3,11.7-6.3,15.6-2.1
	c0.9,1,1.4,2.2,2,3.4c1.9,4.4,3.9,9.3,2.7,14c-1.3,5.4-6.4,9-11.2,11.8c-39.6,23.4-87.3,32.8-132.8,26.1
	c-21.1-3.1-41.5-9.5-61.8-15.8c-21.2-6.6-42.7-13.4-61.7-24.8C156.9,490.2,147.9,483.3,146.9,475.5z"/>
<linearGradient id="SVGID_00000108309904309990520000000015457375437228680868_" gradientUnits="userSpaceOnUse" x1="217.7327" y1="285.975" x2="297.0013" y2="531.1119">
	<stop  offset="0" style="stop-color:#1A1313"/>
	<stop  offset="1" style="stop-color:#383838"/>
</linearGradient>
<path style="fill:url(#SVGID_00000108309904309990520000000015457375437228680868_);stroke:#000000;stroke-miterlimit:10;" d="
	M185.2,383.1c11.4-1.2,23-0.5,34.4,0.2c36.5,2.2,73,4.4,109.5,6.6c6,0.4,12.8,1.2,16.3,6.1c3.5,5,1.9,11.8-0.1,17.6
	c-7.1,20.3-18.1,40.7-36.8,51.3c-18,10.2-40,9.7-60.4,7c-10.1-1.3-20.3-3.1-29.7-7.3c-19.6-8.7-33.5-26.5-45.3-44.5
	c-7.2-11-14.3-23.1-14.4-36.3C160.3,383.2,162.1,385.5,185.2,383.1z"/>
<linearGradient id="SVGID_00000161593272778373928290000003173095777236598665_" gradientUnits="userSpaceOnUse" x1="15.1032" y1="329.9154" x2="130.8065" y2="687.7258">
	<stop  offset="0" style="stop-color:#1A1313"/>
	<stop  offset="1" style="stop-color:#383838"/>
</linearGradient>
<path style="fill:url(#SVGID_00000161593272778373928290000003173095777236598665_);stroke:#000000;stroke-miterlimit:10;" d="
	M90.3,420.5c-16.6,4.2-26.7,20.7-33.7,36.4c-14,31.1-23,64.4-26.7,98.3c-0.2,1.4-0.3,2.9,0.4,4.1c0.6,1.2,1.9,2,3.1,2.7
	c13,7.7,25.5,16.3,37.5,25.5c6.3,4.9,12.6,10,19.8,13.5c7.2,3.5,15.7,5.1,23.3,2.6c14.9-4.9,20.7-22.6,23.2-38c0.3-1.9,0.6-4,0-5.8
	c-0.7-2-2.3-3.5-3.6-5.2c-8.6-10.6-5.4-26-5-39.6C129.4,479.9,108.7,448.5,90.3,420.5z"/>
<linearGradient id="SVGID_00000046304716390623754530000004142663513815244732_" gradientUnits="userSpaceOnUse" x1="437.9429" y1="392.7939" x2="530.7219" y2="679.7113">
	<stop  offset="0" style="stop-color:#1A1313"/>
	<stop  offset="1" style="stop-color:#383838"/>
</linearGradient>
<path style="fill:url(#SVGID_00000046304716390623754530000004142663513815244732_);stroke:#000000;stroke-miterlimit:10;" d="
	M497.8,465.5c-11.8,3.7-19.9,14.5-26.1,25.2c-18.7,32.2-28.2,69.7-27.1,106.9c1.3-3.2,6.2-1.4,8.6,1c5.3,5.2,9.7,11.4,15.8,15.6
	c10.6,7.2,25,6.8,36.6,1.5c11.6-5.3,20.8-14.8,28.3-25.1c4-5.4,7.7-11.2,9.8-17.6c4.9-14.9,0.8-31-3.4-46.1
	c-3.5-13-7.2-26.1-14-37.7C519.6,477.6,509,467.6,497.8,465.5z"/>
<g id="アートボード1" transform="matrix(1.00708,0,0,1.01162,-1098.31,-862.665)">
	<rect x="1188.3" y="1375.7" class="st7" width="479.2" height="179.2"/>
	<g transform="matrix(1.07228,0,0,0.71465,-80.7441,248.001)">
		<text transform="matrix(1.161 0 0 1.3832 1276.2179 1684.6205)"><tspan x="0" y="0" class="st8 st9">SJCOE </tspan><tspan x="0" y="89" class="st8 st9">FabLab</tspan></text>
	</g>
</g>
</svg>
